<?xml version="1.0" encoding="UTF-8"?>
<svg width="24" height="24" viewBox="0 0 24 24" fill="none" xmlns="http://www.w3.org/2000/svg">
    <path d="M21.3 10.8L19.6 9.1C19.3 8.8 18.8 8.8 18.5 9.1L14.4 13.2L15.8 14.6L19.6 10.8C19.9 10.5 19.9 10 19.6 9.7L21.3 10.8ZM3.7 13.2L2 14.9C1.7 15.2 1.7 15.7 2 16L3.7 17.7C4 18 4.5 18 4.8 17.7L8.9 13.6L7.5 12.2L3.7 16C3.4 16.3 3.4 16.8 3.7 17.1L2 15.4L3.7 13.2Z" fill="#FFB300"/>
    <path d="M11.3 14.3L9.7 12.7C9.4 12.4 8.9 12.4 8.6 12.7L4.5 16.8L6.2 18.5C6.5 18.8 7 18.8 7.3 18.5L11.4 14.4C11.7 14.1 11.7 13.6 11.4 13.3L11.3 14.3ZM12.7 9.7L14.3 11.3C14.6 11.6 15.1 11.6 15.4 11.3L19.5 7.2L17.8 5.5C17.5 5.2 17 5.2 16.7 5.5L12.6 9.6C12.3 9.9 12.3 10.4 12.6 10.7L12.7 9.7Z" fill="#FFB300"/>
</svg> 